HIERARCHY
ROOT Hips
{
 OFFSET 0.000000 0.000000 0.000000
 CHANNELS 6 Xposition Yposition Zposition Yrotation Xrotation Zrotation
 JOINT Chest
 {
  OFFSET 0.000000 9.857222 0.000240
  CHANNELS 3 Yrotation Xrotation Zrotation
  JOINT Chest2
  {
   OFFSET 0.000000 10.876940 -0.000436
   CHANNELS 3 Yrotation Xrotation Zrotation
   JOINT Chest3
   {
    OFFSET 0.000000 9.827798 0.000000
    CHANNELS 3 Yrotation Xrotation Zrotation
    JOINT Chest4
    {
     OFFSET 0.000000 9.827798 0.000000
     CHANNELS 3 Yrotation Xrotation Zrotation
     JOINT Neck
     {
      OFFSET 0.000000 13.831992 0.000000
      CHANNELS 3 Yrotation Xrotation Zrotation
      JOINT Head
      {
       OFFSET 0.000000 9.147643 -0.001036
       CHANNELS 3 Yrotation Xrotation Zrotation
       End Site
       {
        OFFSET 0.000000 17.515799 -0.000541
       }
      }
     }
     JOINT RightCollar
     {
      OFFSET -3.001579 7.717577 0.000000
      CHANNELS 3 Yrotation Xrotation Zrotation
      JOINT RightShoulder
      {
       OFFSET -14.002642 0.000000 0.000000
       CHANNELS 3 Yrotation Xrotation Zrotation
       JOINT RightElbow
       {
        OFFSET -30.053852 0.000000 0.000000
        CHANNELS 3 Yrotation Xrotation Zrotation
        JOINT RightWrist
        {
         OFFSET -24.564923 0.000000 -0.000000
         CHANNELS 3 Yrotation Xrotation Zrotation
         End Site
         {
          OFFSET -18.334355 0.000000 0.000000
         }
        }
       }
      }
     }
     JOINT LeftCollar
     {
      OFFSET 3.001579 7.717577 0.000000
      CHANNELS 3 Yrotation Xrotation Zrotation
      JOINT LeftShoulder
      {
       OFFSET 14.002642 0.000000 0.000000
       CHANNELS 3 Yrotation Xrotation Zrotation
       JOINT LeftElbow
       {
        OFFSET 30.053852 0.000000 0.000000
        CHANNELS 3 Yrotation Xrotation Zrotation
        JOINT LeftWrist
        {
         OFFSET 24.564923 0.000000 -0.000000
         CHANNELS 3 Yrotation Xrotation Zrotation
         End Site
         {
          OFFSET 18.334355 0.000000 0.000000
         }
        }
       }
      }
     }
    }
   }
  }
 }
 JOINT RightHip
 {
  OFFSET -8.003235 -0.001175 -0.000120
  CHANNELS 3 Yrotation Xrotation Zrotation
  JOINT RightKnee
  {
   OFFSET 0.000000 -41.759727 0.000113
   CHANNELS 3 Yrotation Xrotation Zrotation
   JOINT RightAnkle
   {
    OFFSET 0.000000 -40.728748 0.000159
    CHANNELS 3 Yrotation Xrotation Zrotation
    JOINT RightToe
    {
     OFFSET 0.000000 -6.515296 14.732841
     CHANNELS 3 Yrotation Xrotation Zrotation
     End Site
     {
      OFFSET 0.000000 -1.502839 6.412115
     }
    }
   }
  }
 }
 JOINT LeftHip
 {
  OFFSET 8.003235 -0.001175 -0.000120
  CHANNELS 3 Yrotation Xrotation Zrotation
  JOINT LeftKnee
  {
   OFFSET 0.000000 -41.759727 0.000113
   CHANNELS 3 Yrotation Xrotation Zrotation
   JOINT LeftAnkle
   {
    OFFSET 0.000000 -40.728748 0.000159
    CHANNELS 3 Yrotation Xrotation Zrotation
    JOINT LeftToe
    {
     OFFSET 0.000000 -6.515296 14.732841
     CHANNELS 3 Yrotation Xrotation Zrotation
     End Site
     {
      OFFSET 0.000000 -1.502839 6.412115
     }
    }
   }
  }
 }
}
MOTION
Frames: 5
Frame Time: 0.016667
0.000000 88.822259 0.000000 0.000000 -5.826342 0.000000 0.000000 11.116423 0.000000 0.000000 -5.290081 0.000000 0.000000 0.000000 0.000000 0.000000 0.000000 0.000000 0.000000 12.665069 0.000000 0.000000 0.575450 0.000000 0.000000 0.000000 0.000000 0.000000 0.000000 0.000000 2.337306 0.000000 0.000000 -2.337306 0.000000 0.000000 0.000000 0.000000 0.000000 0.000000 0.000000 0.000000 -2.337306 0.000000 0.000000 2.337306 0.000000 0.000000 0.000000 8.578828 0.000000 0.000000 1.905768 0.000000 0.000000 -4.658254 0.000000 0.000000 0.000000 0.000000 0.000000 8.578828 0.000000 0.000000 1.905768 0.000000 0.000000 -4.658254 0.000000 0.000000 0.000000 0.000000
10.359450 90.264060 0.597771 58.468655 -14.298161 -0.472366 0.482173 2.641894 0.760824 0.323754 1.163997 0.360141 0.323754 1.163997 0.360141 0.242121 0.873189 0.269480 -1.874729 22.709920 -0.387455 -3.276043 5.998653 -0.191594 5.933453 19.491875 13.014531 33.813057 6.717803 81.369021 33.095141 0.689460 11.061709 -12.347917 7.815449 -13.713961 -24.217372 22.026099 -17.908088 -27.611209 -4.790481 -72.562582 -22.851727 -24.764330 2.549202 8.790355 15.927413 12.837667 -8.461334 12.987935 2.308933 -2.554804 9.835009 -7.114920 0.527634 -8.227088 1.385358 -0.725277 0.096499 -0.382485 -19.180762 16.532283 0.610491 11.167602 4.859182 -7.192998 -0.925217 -6.144609 0.116687 0.728774 -0.061047 0.239420
10.363853 90.264136 0.625530 58.495728 -14.304503 -0.464226 0.501329 2.643903 0.758817 0.321914 1.168841 0.355827 0.321914 1.168841 0.355827 0.240747 0.876819 0.266245 -1.876114 22.729151 -0.393829 -3.276679 6.034231 -0.203133 5.929668 19.482159 13.007498 33.838950 6.719856 81.397592 33.120181 0.718663 11.072627 -12.349580 7.785226 -13.768421 -24.190474 22.021195 -17.906834 -27.617048 -4.813541 -72.593587 -23.093387 -24.774139 2.696024 8.721003 15.917004 12.880088 -8.447734 13.001310 2.296691 -2.606087 9.837365 -7.092855 0.562564 -8.215713 1.395845 -0.753226 0.084877 -0.397582 -19.083206 16.537057 0.626028 11.083791 4.873064 -7.166915 -0.925158 -6.145467 0.107182 0.752725 -0.061266 0.246565
10.370321 90.264718 0.648602 58.529218 -14.288146 -0.456736 0.511124 2.629607 0.754902 0.321705 1.165867 0.353000 0.321705 1.165867 0.353000 0.240597 0.874587 0.264127 -1.877684 22.753994 -0.402663 -3.276950 6.080175 -0.219178 5.921542 19.467827 13.000629 33.887531 6.741371 81.445895 33.127696 0.747075 11.081921 -12.357370 7.771667 -13.808716 -24.152984 22.024720 -17.899046 -27.655799 -4.826873 -72.602289 -23.325469 -24.842770 2.843935 8.639237 15.889338 12.926147 -8.461586 13.003669 2.288415 -2.611693 9.825946 -7.077397 0.531446 -8.202627 1.388671 -0.730881 0.078562 -0.384878 -19.088105 16.516715 0.621373 11.035043 4.886115 -7.141405 -0.859822 -6.145110 0.112990 0.729956 -0.063492 0.234091
10.383185 90.264966 0.671222 58.572808 -14.262106 -0.449443 0.514248 2.620966 0.748603 0.321631 1.156640 0.350450 0.321631 1.156640 0.350450 0.240551 0.867665 0.262220 -1.878181 22.780618 -0.412413 -3.275032 6.129389 -0.237202 5.914581 19.445995 12.995017 33.925698 6.766419 81.490124 33.132764 0.769301 11.091294 -12.361705 7.765225 -13.810433 -24.124899 22.021748 -17.892040 -27.655421 -4.862222 -72.617920 -23.550592 -24.887608 2.979234 8.559760 15.871996 12.972087 -8.496140 13.002828 2.283553 -2.563862 9.816088 -7.064321 0.479368 -8.199120 1.376660 -0.705041 0.078633 -0.368682 -19.116426 16.490830 0.601489 10.930328 4.884902 -7.120126 -0.773972 -6.150790 0.129702 0.700464 -0.059361 0.224987
